<svg class="logo-icon" viewBox="0 0 600 200" xmlns="http://www.w3.org/2000/svg" aria-hidden="true">
  <defs>
    <linearGradient id="forgeGradientDark" x1="0" y1="0" x2="600" y2="0" gradientUnits="userSpaceOnUse" gradientTransform="rotate(20)">
      <stop offset="0%" stop-color="#ffffff"/>
      <stop offset="40%" stop-color="#ffff99"/>
      <stop offset="50%" stop-color="#ffffcc"/>
      <stop offset="60%" stop-color="#ffff99"/>
      <stop offset="100%" stop-color="#ffffff"/>
    </linearGradient>
  </defs>
  <g transform="translate(200,-160) scale(0.6)">
    <path fill="#ffffff" d="m -259.13976,546.10161 h -19.38474 l 0.44129,-1.14996 0.44128,-1.14997 0.84431,-3.25003 0.84431,-3.25004 0.80047,-3.08726 0.80048,-3.08727 6.65002,-0.41488 6.65002,-0.41488 2.34951,-1.22643 2.3495,-1.22644 2.10867,-2.27142 2.10867,-2.27142 1.27624,-2.5311 1.27625,-2.53109 0.5234,-4.45337 0.52341,-4.45336 -1.00291,-3.58205 -1.00292,-3.58205 -2.79512,-3.26548 -2.79513,-3.26547 -4.11028,-2.09483 -4.11028,-2.09483 -14,-4.5622 -14,-4.5622 -6.20709,-2.95079 -6.20709,-2.95079 -7.00851,-4.68792 -7.00851,-4.68792 -4.02244,-4.27227 -4.02244,-4.27228 -2.60039,-3.8 -2.6004,-3.8 h 29.23843 29.23844 v -2 -1.99999 h 83.2262 83.22619 l -0.2262,8.9002 -0.2262,8.90021 -9.2,2.96877 -9.2,2.96877 -10.4,4.21001 -10.4,4.21 -15.40915,7.50912 -15.40915,7.50911 -3.48787,3.48788 -3.48788,3.48787 -0.98704,2.99077 -0.98704,2.99077 0.29345,5.81117 0.29345,5.81116 2.42339,3.92209 2.4234,3.92209 3.19778,1.76647 3.19778,1.76647 6.22671,0.20259 6.22672,0.20259 0.45247,0.73211 0.45246,0.73211 1.80627,7.09883 1.80626,7.09883 h -18.81514 -18.81515 l -3.19828,-3.63344 -3.19829,-3.63345 -3.30257,-1.76655 -3.30257,-1.76656 h -9.2 -9.2 l -3.30257,1.76656 -3.30257,1.76655 -3.19829,3.63345 -3.19829,3.63344 z m -16.21355,-125.70967 -10.2,7.24663 0.0139,-44.16848 0.0139,-44.16847 1.14764,-5.41585 1.14764,-5.41584 2.63847,-4.96171 2.63846,-4.96171 4.13552,-4.14057 4.13552,-4.14058 5.06448,-2.48702 5.06448,-2.48703 5.6,-1.18096 5.6,-1.18095 21,-0.0139 21,-0.0139 v 0.48507 0.48507 l -8.06653,10.31493 -8.06653,10.31493 -13.73347,0.008 -13.73347,0.008 -4.15232,1.93329 -4.15232,1.93329 -2.4031,3.31739 -2.40311,3.3174 -0.87619,4.2206 -0.8762,4.22061 0.23162,7.52089 0.23162,7.5209 17.8,0.2153 17.8,0.21531 v 0.26427 0.26428 l -4.79551,10.10058 -4.7955,10.10058 -13.00449,0.21984 -13.0045,0.21984 -0.4,16.52185 -0.4,16.52184 z m 60.28811,7.13128 -0.61772,0.2216 0.19292,-45.4216 0.19292,-45.4216 1.64283,-5.2 1.64283,-5.2 2.8854,-4.80001 2.8854,-4.8 1.74365,-1.86618 1.74366,-1.86619 4.68005,-3.12639 4.68005,-3.1264 5.31995,-1.75472 5.31995,-1.75473 25.71096,-0.0527 25.71097,-0.0527 -1.43636,2 -1.43636,2 -7.10468,8.4 -7.10467,8.4 -16.36993,0.4 -16.36993,0.4 -3.32262,1.77679 -3.32262,1.77678 -2.36424,2.86823 -2.36423,2.86823 -0.91315,3.0478 -0.91314,3.0478 v 9.30719 9.30718 h 18.39623 18.39623 l -5.3825,10.8 -5.3825,10.8 h -13.01373 -13.01373 l -0.0947,15.4 -0.0947,15.4 0.0953,0.6018 0.0953,0.60181 -10.04769,7.39819 -10.04768,7.3982 z"/>
  </g>
  <text x="180" y="115" font-size="80" font-family="Arial, sans-serif" font-weight="bold" fill="url(#forgeGradientDark)">ForgeField</text>
</svg>
